<svg width="28" height="28" viewBox="0 0 28 28" fill="none" xmlns="http://www.w3.org/2000/svg">
<path d="M2.33331 5.83333C2.33331 5.21449 2.57915 4.621 3.01673 4.18342C3.45432 3.74583 4.04781 3.5 4.66665 3.5H11.6666V24.5H4.66665C4.04781 24.5 3.45432 24.2542 3.01673 23.8166C2.57915 23.379 2.33331 22.7855 2.33331 22.1667V5.83333ZM16.3333 3.5H23.3333C23.9522 3.5 24.5456 3.74583 24.9832 4.18342C25.4208 4.621 25.6666 5.21449 25.6666 5.83333V11.6667H16.3333V3.5ZM16.3333 16.3333H25.6666V22.1667C25.6666 22.7855 25.4208 23.379 24.9832 23.8166C24.5456 24.2542 23.9522 24.5 23.3333 24.5H16.3333V16.3333Z" stroke="white" stroke-width="2" stroke-linecap="round" stroke-linejoin="round"/>
</svg>
