<svg width="24" height="24" viewBox="0 0 24 24" fill="none" xmlns="http://www.w3.org/2000/svg">
<g clip-path="url(#clip0_1_106)">
<path fill-rule="evenodd" clip-rule="evenodd" d="M8.29299 12.7071C8.10552 12.5195 8.00021 12.2652 8.00021 12.0001C8.00021 11.7349 8.10552 11.4806 8.29299 11.2931L13.95 5.63606C14.0422 5.54055 14.1526 5.46437 14.2746 5.41196C14.3966 5.35955 14.5278 5.33197 14.6606 5.33081C14.7934 5.32966 14.9251 5.35496 15.0479 5.40524C15.1708 5.45552 15.2825 5.52978 15.3764 5.62367C15.4703 5.71756 15.5445 5.82921 15.5948 5.95211C15.6451 6.07501 15.6704 6.20669 15.6692 6.33947C15.6681 6.47224 15.6405 6.60346 15.5881 6.72547C15.5357 6.84747 15.4595 6.95782 15.364 7.05006L10.414 12.0001L15.364 16.9501C15.5462 17.1387 15.6469 17.3913 15.6447 17.6535C15.6424 17.9157 15.5372 18.1665 15.3518 18.3519C15.1664 18.5373 14.9156 18.6425 14.6534 18.6447C14.3912 18.647 14.1386 18.5462 13.95 18.3641L8.29299 12.7071Z" fill="black"/>
</g>
<defs>
<clipPath id="clip0_1_106">
<rect width="24" height="24" fill="white" transform="matrix(-1 0 0 -1 24 24.0001)"/>
</clipPath>
</defs>
</svg>
